<svg width="42" height="31" viewBox="0 0 42 31" fill="none" xmlns="http://www.w3.org/2000/svg">
<g id="BCA">
<rect id="Background" y="0.5" width="42" height="30" rx="4" fill="#0060AF"/>
<g id="logo">
<path id="Fill 1" fill-rule="evenodd" clip-rule="evenodd" d="M8.63847 18.3749C8.63847 17.9723 8.6431 16.8961 8.63257 16.7635C8.64175 15.1621 7.40659 14.0325 6.62627 14.1205C6.08632 14.1647 5.6337 14.3723 5.39082 14.9693C5.16552 15.5258 5.36696 16.2659 6.11568 16.4396C6.9162 16.6261 7.38379 16.7813 7.72212 17.0002C8.13667 17.2682 8.4751 17.7803 8.48408 18.3756" fill="white"/>
<path id="Fill 6" fill-rule="evenodd" clip-rule="evenodd" d="M8.30405 18.3755C8.30666 17.8594 8.00108 17.4031 7.60169 17.1578C7.24742 16.9411 6.77181 16.7987 6.00453 16.6152C5.76736 16.558 5.51926 16.431 5.44246 16.269C5.23928 16.462 5.20238 16.8959 5.23813 17.1495C5.27967 17.4429 5.6434 17.9265 6.19109 17.9454C6.52555 17.9581 6.94842 17.8775 7.1512 17.8369C7.50103 17.7657 8.0545 17.9723 8.14261 18.3749" fill="white"/>
<path id="Fill 8" fill-rule="evenodd" clip-rule="evenodd" d="M8.92134 11.6245C7.99262 11.6245 7.19056 12.2018 7.19337 13.2008C7.19626 14.0408 7.91292 14.4905 8.16874 14.8117C8.55518 15.2958 8.76434 15.8687 8.78599 16.7454C8.80299 17.4431 8.80212 18.132 8.80589 18.3762H9.0108C9.00732 18.1207 8.99804 17.3893 9.00858 16.7238C9.02249 15.8469 9.23918 15.2958 9.62582 14.8117C9.88386 14.4905 10.5998 14.0408 10.6014 13.2008C10.605 12.2018 9.80319 11.6245 8.87545 11.6245" fill="white"/>
<path id="Fill 10" fill-rule="evenodd" clip-rule="evenodd" d="M9.15689 18.3749C9.15689 17.9723 9.15206 16.8961 9.1624 16.7635C9.15331 15.1621 10.3877 14.0325 11.1687 14.1205C11.7087 14.1647 12.1607 14.3723 12.4043 14.9693C12.6293 15.5258 12.4269 16.2659 11.6791 16.4396C10.878 16.6261 10.4111 16.7813 10.0719 17.0002C9.65781 17.2682 9.34306 17.7803 9.3334 18.3756" fill="white"/>
<path id="Fill 12" fill-rule="evenodd" clip-rule="evenodd" d="M9.49123 18.3755C9.48833 17.8594 9.79381 17.4031 10.192 17.1578C10.5479 16.9411 11.024 16.7987 11.7906 16.6152C12.0282 16.558 12.276 16.431 12.3515 16.269C12.5556 16.462 12.5925 16.8959 12.5567 17.1495C12.5144 17.4429 12.1515 17.9265 11.6048 17.9454C11.2705 17.9581 10.8453 17.8775 10.6434 17.8369C10.2949 17.7657 9.73991 17.9723 9.65141 18.3749" fill="white"/>
<path id="Fill 14" fill-rule="evenodd" clip-rule="evenodd" d="M9.77791 20.0414L9.65918 19.224L9.94602 19.183C10.0158 19.1741 10.1008 19.1856 10.1348 19.2267C10.1724 19.2698 10.1839 19.3054 10.1911 19.3619C10.202 19.4318 10.1806 19.5125 10.0971 19.5528V19.5552C10.1902 19.5552 10.2466 19.6183 10.263 19.7249C10.2653 19.7475 10.2725 19.8018 10.2653 19.8471C10.2464 19.955 10.1782 19.9898 10.0628 20.005L9.77791 20.0414ZM9.96254 19.8951C9.99654 19.8905 10.031 19.8887 10.058 19.8725C10.0993 19.8471 10.0956 19.7928 10.0898 19.7524C10.0755 19.6638 10.0509 19.63 9.95114 19.6439L9.88834 19.653L9.92814 19.8996L9.96254 19.8951ZM9.90254 19.5173C9.94051 19.5116 9.99191 19.5072 10.0134 19.4733C10.0247 19.4506 10.039 19.4325 10.0295 19.3821C10.0178 19.3224 9.99683 19.2852 9.91616 19.2996L9.8411 19.311L9.87076 19.5204L9.90254 19.5173Z" fill="white"/>
<path id="Fill 16" fill-rule="evenodd" clip-rule="evenodd" d="M11.0205 19.55C11.0227 19.5652 11.0254 19.5822 11.0263 19.5974C11.0495 19.7464 11.0205 19.8699 10.8428 19.9038C10.5799 19.9515 10.5295 19.7976 10.4834 19.5822L10.4587 19.4655C10.4225 19.2594 10.4069 19.1033 10.6632 19.0551C10.8076 19.0304 10.903 19.0846 10.9427 19.2201C10.9489 19.2403 10.9567 19.2602 10.9596 19.2806L10.8024 19.3112C10.7842 19.2602 10.7602 19.1692 10.6894 19.1769C10.5625 19.1914 10.6044 19.3402 10.6175 19.4025L10.6647 19.6262C10.6789 19.6939 10.7071 19.802 10.817 19.7812C10.9061 19.7643 10.8672 19.6333 10.8593 19.5796" fill="white"/>
<path id="Fill 18" fill-rule="evenodd" clip-rule="evenodd" d="M11.2726 19.7972L11.2183 18.9514L11.4294 18.8906L11.8721 19.6263L11.7059 19.6732L11.6009 19.4862L11.4163 19.5385L11.4402 19.7511L11.2726 19.7972ZM11.4009 19.4019L11.5343 19.3655L11.3571 19.0232L11.4009 19.4019Z" fill="white"/>
<path id="Fill 20" fill-rule="evenodd" clip-rule="evenodd" d="M6.05658 19.1576C6.12266 18.9582 6.18178 18.8113 6.43403 18.8765C6.569 18.9121 6.65266 18.9681 6.6487 19.1159C6.64802 19.1488 6.63653 19.1824 6.62899 19.2148L6.472 19.174C6.49258 19.0924 6.50562 19.0276 6.39896 18.9966C6.27569 18.9648 6.24564 19.1057 6.22864 19.1666L6.16478 19.3882C6.14449 19.4541 6.12015 19.5629 6.22864 19.5911C6.31829 19.6137 6.37259 19.5309 6.40505 19.4097L6.2953 19.3822L6.33327 19.254L6.59151 19.3322L6.46891 19.7596L6.35008 19.7292L6.37684 19.6389H6.37346C6.31868 19.7128 6.25202 19.7206 6.19357 19.7099C5.93533 19.6442 5.96229 19.4851 6.02392 19.2725" fill="white"/>
<path id="Fill 22" fill-rule="evenodd" clip-rule="evenodd" d="M7.01748 19.5188L6.93971 19.8666L6.76465 19.8309L6.9512 19.019L7.24963 19.0825C7.4243 19.1181 7.47705 19.1914 7.45232 19.3423C7.43821 19.429 7.3929 19.5222 7.28229 19.5147L7.28113 19.5133C7.37465 19.5441 7.38257 19.5886 7.36624 19.6654C7.35919 19.6982 7.31059 19.8965 7.34412 19.9286L7.34528 19.953L7.16413 19.9084C7.1566 19.8534 7.18229 19.7545 7.19244 19.6997C7.20258 19.6513 7.21891 19.583 7.16674 19.5574C7.12597 19.5368 7.11071 19.5378 7.06453 19.5279L7.01748 19.5188ZM7.04733 19.3931L7.16519 19.423C7.23678 19.4329 7.27659 19.3979 7.29069 19.3163C7.30344 19.2415 7.28692 19.2124 7.22268 19.1979L7.09631 19.1737L7.04733 19.3931Z" fill="white"/>
<path id="Fill 24" fill-rule="evenodd" clip-rule="evenodd" d="M8.14047 19.2002L8.31359 19.2192L8.23901 19.79C8.20278 19.971 8.12859 20.05 7.9174 20.0253C7.70253 19.9997 7.65152 19.9075 7.66447 19.7251L7.73963 19.1548L7.91411 19.1735L7.83924 19.7311C7.83122 19.7916 7.81644 19.8814 7.93063 19.8923C8.03198 19.8996 8.05497 19.8362 8.06646 19.7575" fill="white"/>
<path id="Fill 26" fill-rule="evenodd" clip-rule="evenodd" d="M8.50439 20.0564L8.55656 19.2402L8.8891 19.2538C9.04638 19.2612 9.08744 19.3821 9.08261 19.4976C9.07797 19.5678 9.05478 19.6462 8.98986 19.6888C8.93663 19.7249 8.86813 19.7335 8.80476 19.7306L8.69636 19.7249L8.67472 20.067L8.50439 20.0564ZM8.70119 19.6004L8.7893 19.6051C8.86089 19.6075 8.90832 19.5808 8.9145 19.4818C8.91808 19.3867 8.87982 19.3705 8.78708 19.3666L8.71732 19.3644L8.70119 19.6004Z" fill="white"/>
<path id="Fill 28" fill-rule="evenodd" clip-rule="evenodd" d="M31.9646 12.4135L30.6426 14.6756C30.1436 14.2935 29.5344 14.0125 28.7569 14.0125C26.9172 14.0125 26.1698 15.3052 26.1698 16.2158C26.1698 16.8918 26.6393 17.889 28.2763 17.889C28.9635 17.889 29.9402 17.4385 30.2214 17.2334L28.9139 19.8577C28.2907 19.9749 28.0859 20.0476 27.5584 20.063C24.6284 20.1454 23.4445 18.4487 23.4453 16.715C23.4473 14.423 25.6089 11.6357 29.1925 11.6357C29.412 11.6357 29.6805 11.7074 29.9102 11.7867L30.1423 11.5068" fill="white"/>
<path id="Fill 30" fill-rule="evenodd" clip-rule="evenodd" d="M37.4193 11.5776L37.7936 19.7987H35.0076L35.0061 18.3889H33.1062L32.4811 19.7987H29.4595L32.6184 13.9282L31.9061 13.9238L33.2594 11.5776H37.4193ZM34.9879 14.0927L33.9139 16.4839H35.0204L34.9879 14.0927Z" fill="white"/>
<path id="Fill 32" fill-rule="evenodd" clip-rule="evenodd" d="M21.6864 11.5775C23.066 11.5847 23.8457 12.2907 23.8457 13.3105C23.8457 14.2507 23.0234 15.0828 22.1208 15.5131C23.0501 15.8352 23.1305 16.6257 23.1305 17.1849C23.1305 18.5361 21.6923 19.7986 19.8228 19.7986H15.7456L17.336 14.0098L16.6827 14.0062L18.0182 11.5775C18.0182 11.5775 20.5644 11.5702 21.6864 11.5775ZM20.3328 14.9107C20.6181 14.9107 21.1221 14.8425 21.248 14.3219C21.3861 13.7566 20.9132 13.7414 20.6863 13.7414L19.8758 13.7381L19.5931 14.9107H20.3328ZM19.1868 16.3634L18.8136 17.7146H19.7681C20.1435 17.7146 20.6552 17.5388 20.7806 17.0991C20.9045 16.6582 20.5467 16.3634 20.1727 16.3634H19.1868Z" fill="white"/>
<g id="group">
<path id="Fill 3" fill-rule="evenodd" clip-rule="evenodd" d="M8.9581 20.8089C7.54633 20.8089 6.09563 20.4812 4.64677 19.8329L4.61122 19.8165L4.59422 19.7823C3.94403 18.4885 3.6001 17.0736 3.6001 15.6891C3.6001 14.3066 3.92992 12.9521 4.5805 11.6601L4.59847 11.6258L4.6347 11.6086C5.97497 11.0101 7.41668 10.707 8.92139 10.707C10.3229 10.707 11.8199 11.0445 13.2495 11.6847L13.2861 11.7001L13.3031 11.735C13.9657 13.0527 14.3151 14.4674 14.3151 15.829C14.3151 17.1851 13.9796 18.5409 13.3162 19.8577L13.2988 19.8922L13.2619 19.9083C11.942 20.4972 10.4537 20.8089 8.9581 20.8089ZM4.78087 19.6555C6.18828 20.2797 7.59213 20.5948 8.9581 20.5948C10.4065 20.5948 11.8468 20.2964 13.1291 19.7307C13.7661 18.4547 14.089 17.1414 14.089 15.829C14.089 14.5111 13.752 13.1404 13.1146 11.8615C11.7271 11.2466 10.2782 10.9206 8.92139 10.9206C7.4647 10.9206 6.06839 11.2118 4.76869 11.7865C4.14479 13.0387 3.82723 14.351 3.82723 15.6891C3.82723 17.0296 4.15715 18.4009 4.78087 19.6555Z" fill="white"/>
</g>
</g>
</g>
</svg>
