<svg width="44" height="31" viewBox="0 0 44 31" fill="none" xmlns="http://www.w3.org/2000/svg">
<g id="BNI">
<rect id="Background" x="1" y="0.5" width="42" height="30" rx="4" fill="white" stroke="#E94E0F" stroke-width="0.5"/>
<g id="logo">
<path id="46" fill-rule="evenodd" clip-rule="evenodd" d="M7.81133 18.3146L9.23669 20.0796H5.70775L7.81133 18.3146ZM7.36311 17.7693L4.60259 20.085L4.60146 14.3898L7.36311 17.7693ZM14.0051 12.0345C14.0051 12.0345 13.3991 11.7476 12.6951 11.7895C11.8902 11.8369 11.2169 12.1456 10.8298 12.5529C10.5862 12.8088 10.3169 13.1209 10.1817 13.4599C9.98553 13.9503 9.94366 14.5984 9.94366 14.5984C9.94366 14.5984 9.66216 14.3594 9.30947 13.6632C8.89939 12.8535 8.78722 12.3629 8.73165 11.8033C8.68219 11.3122 8.75983 10.8267 8.75983 10.8267H14.0051V12.0345ZM14.0051 13.6491V17.2402C14.0051 17.2402 13.6791 17.3654 13.4131 17.3654C13.1471 17.3654 12.6941 17.326 12.168 17.0367C11.6458 16.7498 11.3567 16.4028 11.1326 16.0882C10.9053 15.7683 10.7176 15.3249 10.6618 15.0053C10.617 14.7497 10.5687 14.112 10.8298 13.5937C10.9715 13.3124 11.3518 12.8303 12.084 12.8029C12.6809 12.78 13.0118 12.9369 13.3152 13.1034C13.8924 13.4208 14.0051 13.6491 14.0051 13.6491ZM8.29361 16.988L9.23974 16.1993C8.93821 15.8142 8.85853 15.669 8.52146 15.1718C8.17635 14.6628 7.88727 14.1029 7.64007 13.4459C7.3725 12.7342 7.30787 12.3346 7.33741 11.8033C7.37442 11.1274 7.52813 10.8267 7.52813 10.8267H4.6001L4.60146 12.4047C4.60146 12.4047 6.84278 15.2136 8.29361 16.988ZM10.997 20.0771H14.0051V17.8837C14.0051 17.8837 13.259 18.2259 12.774 18.2536C12.4853 18.2704 12.205 18.2815 11.7528 18.1612C11.2502 18.0277 10.9646 17.8975 10.4987 17.5132C10.1245 17.205 9.69668 16.7498 9.69668 16.7498L8.745 17.5433C9.18655 18.0834 9.51264 18.4765 9.61247 18.5823C10.0417 19.0359 10.2236 19.2026 10.5126 19.3642C10.8016 19.5262 11.7671 19.5175 11.7671 19.5175L10.997 20.0771Z" fill="#E94E0F"/>
<path id="BNI_2" fill-rule="evenodd" clip-rule="evenodd" d="M36.7561 18.126C36.7561 18.7615 36.8418 19.8061 36.1301 20.0604V20.1028H38.8332V20.0604C38.122 19.7922 38.2073 18.7615 38.2073 18.126V12.8031C38.2073 12.1679 38.122 11.1231 38.8332 10.8548V10.8125H36.1301V10.8548C36.8557 11.1231 36.7561 12.1538 36.7561 12.8031V18.126ZM26.8442 12.8031L31.7243 18.945C32.3501 19.7496 32.7914 20.2158 33.8015 20.5544V12.6338C33.8015 11.8432 33.8015 11.2783 34.5415 10.8548V10.8125H32.0372V10.8548C32.7914 11.2783 32.7769 11.8432 32.7769 12.6338V17.9849L27.57 11.4619L27.3705 11.1795C27.2712 11.0666 27.2143 10.996 27.1574 10.8267V10.8125H25.0799V10.8548C25.8198 11.2783 25.8198 11.8432 25.8198 12.6338V18.2675C25.8198 19.0579 25.8198 19.6226 25.0659 20.0604V20.1028H27.5842V20.0604C26.8301 19.6226 26.8442 19.0579 26.8442 18.2675V12.8031ZM18.8896 14.5541V11.7868L19.8426 11.6877C20.6964 11.6031 21.6067 12.1114 21.6067 13.0858C21.6067 14.2435 20.2836 14.5541 19.3591 14.5541H18.8896ZM18.8896 18.9732V15.4857L19.8853 15.4293C21.1373 15.3587 22.4746 15.9519 22.4746 17.3214C22.4746 18.6626 21.2941 19.1991 20.1271 19.0862L18.8896 18.9732ZM17.4382 18.1119C17.4382 18.7615 17.5236 19.7922 16.812 20.0604V20.1028H19.1596C20.2266 20.1028 21.3509 20.1452 22.3466 19.6652C23.2999 19.2133 24.0541 18.2813 24.0541 17.1941C24.0541 15.8107 23.0152 14.9634 21.7347 14.6949C22.5458 14.3421 23.1574 13.8057 23.1574 12.8596C23.1574 11.6031 22.0622 10.8125 20.1843 10.8125H16.812V10.8548C17.538 11.1231 17.4382 12.1538 17.4382 12.789V18.1119Z" fill="#005B6A"/>
</g>
</g>
</svg>
