<svg width="42" height="31" viewBox="0 0 42 31" fill="none" xmlns="http://www.w3.org/2000/svg">
<g id="BRI">
<rect id="Background" y="0.5" width="42" height="30" rx="4" fill="#00529C"/>
<g id="logo">
<path id="Fill 1" fill-rule="evenodd" clip-rule="evenodd" d="M12.4507 13.5142H14.4525C15.2631 13.5142 15.8674 13.8728 15.8674 14.6279C15.8674 15.1815 15.5873 15.4898 15.1006 15.6531V15.6655C15.6806 15.7854 15.9799 16.1 15.9799 16.6345C15.9799 17.6854 15.063 17.9054 14.2837 17.9054H12.4507V13.5142ZM13.6101 15.2506H13.9347C14.315 15.2506 14.7081 15.1562 14.7081 14.7847C14.7081 14.3826 14.3338 14.3445 13.9468 14.3445H13.6101V15.2506ZM13.6101 17.0751H13.9537C14.3773 17.0751 14.8199 17.0121 14.8199 16.5654C14.8199 16.0876 14.365 16.0432 13.9658 16.0432H13.6101V17.0751Z" fill="white"/>
<path id="Fill 3" fill-rule="evenodd" clip-rule="evenodd" d="M17.502 13.5142H18.9237L20.6012 17.9054H19.3289L19.005 16.9682H17.3712L17.0281 17.9054H15.8496L17.502 13.5142ZM18.2131 14.4203H18.2L17.6392 16.1379H18.7303L18.2131 14.4203Z" fill="white"/>
<path id="Fill 5" fill-rule="evenodd" clip-rule="evenodd" d="M20.7627 13.5142H22.2404L23.7121 16.4964H23.7243L23.7059 13.5142H24.7663V17.9054H23.3257L21.8037 14.9046H21.7918L21.829 17.9054H20.7627V13.5142Z" fill="white"/>
<path id="Fill 7" fill-rule="evenodd" clip-rule="evenodd" d="M25.1602 13.5142H26.3198V15.3076H26.3323L27.6414 13.5142H29.0386L27.4295 15.5587L29.1633 17.9054H27.685L26.3323 15.9112H26.3198V17.9054H25.1602V13.5142Z" fill="white"/>
<path id="Fill 9" fill-rule="evenodd" clip-rule="evenodd" d="M30.6011 13.5142H32.6029C33.4133 13.5142 34.0183 13.8728 34.0183 14.6279C34.0183 15.1815 33.7382 15.4898 33.2516 15.6531V15.6655C33.8314 15.7854 34.1307 16.1 34.1307 16.6345C34.1307 17.6854 33.214 17.9054 32.4349 17.9054H30.6011V13.5142ZM31.7611 15.2506H32.0851C32.4656 15.2506 32.8581 15.1562 32.8581 14.7847C32.8581 14.3826 32.4844 14.3445 32.098 14.3445H31.7611V15.2506ZM31.7611 17.0751H32.1043C32.5279 17.0751 32.9709 17.0121 32.9709 16.5654C32.9709 16.0876 32.5157 16.0432 32.1166 16.0432H31.7611V17.0751Z" fill="white"/>
<path id="Fill 11" fill-rule="evenodd" clip-rule="evenodd" d="M34.3877 13.5142H36.458C37.231 13.5142 37.8612 13.8663 37.8612 14.6217C37.8612 15.2067 37.5867 15.5968 37.0257 15.7287V15.7412C37.399 15.8421 37.4244 16.1753 37.6427 16.7101L38.0669 17.9054H36.8573L36.6077 17.1132C36.3707 16.3582 36.2209 16.169 35.7907 16.169H35.5473V17.9054H34.3877V13.5142ZM35.5473 15.3387H35.8531C36.2272 15.3387 36.7013 15.3258 36.7013 14.8289C36.7013 14.4203 36.2955 14.3445 35.8531 14.3445H35.5473V15.3387Z" fill="white"/>
<mask id="mask0_1046_1741" style="mask-type:luminance" maskUnits="userSpaceOnUse" x="2" y="11" width="38" height="10">
<path id="Clip 14" fill-rule="evenodd" clip-rule="evenodd" d="M2.3999 20.1233H39.546V11.2998H2.3999V20.1233Z" fill="white"/>
</mask>
<g mask="url(#mask0_1046_1741)">
<path id="Fill 13" fill-rule="evenodd" clip-rule="evenodd" d="M38.3862 17.9054H39.5459V13.5142H38.3862V17.9054Z" fill="white"/>
<path id="Fill 15" fill-rule="evenodd" clip-rule="evenodd" d="M9.80403 11.2998H3.73398C2.99719 11.2998 2.3999 11.9174 2.3999 12.6793V12.6938V18.7441C2.3999 19.4986 2.98618 20.112 3.71348 20.1233H9.8008C10.5378 20.1233 11.1353 19.5057 11.1353 18.7441L11.1381 12.6793C11.1381 11.9174 10.541 11.2998 9.80403 11.2998ZM4.45558 19.4163L4.12439 19.4199C3.72354 19.4199 3.39861 19.0877 3.39861 18.6777L3.39671 18.6193V13.0182L3.3988 12.7166C3.41379 12.3199 3.71253 12.0005 4.10389 12.0005H4.7771C5.3871 12.0005 5.8819 12.5357 5.8819 13.1672C5.8819 13.4793 5.76062 13.7627 5.56418 13.9688L3.84653 15.7272L5.45638 17.3811C5.66401 17.5969 5.78947 17.8807 5.78947 18.1915C5.78947 18.868 5.19218 19.4163 4.45558 19.4163ZM9.4047 19.4107L6.40327 19.4094C6.40327 19.4094 6.7504 18.6526 6.7504 18.1842C6.7504 17.6132 6.56099 17.1029 6.26472 16.7653L5.23811 15.7094L6.28597 14.6172C6.59781 14.3213 6.80507 13.7963 6.80507 13.1982C6.80507 12.7247 6.67525 12.3051 6.46628 12.0005H7.19358C7.80377 12.0005 8.29857 12.5357 8.29857 13.1672C8.29857 13.4793 8.17748 13.7627 7.98104 13.9688L6.29622 15.7088L9.79549 19.309C9.68465 19.3795 9.54477 19.4107 9.4047 19.4107ZM10.1377 18.2867L7.62992 15.7081L8.8243 14.4833C9.06762 14.1767 9.22174 13.7147 9.22174 13.1982C9.22174 12.7216 9.09002 12.2919 8.87916 11.9871L9.41381 12.0031C9.81466 12.0031 10.1396 12.336 10.1396 12.7457L10.1377 18.2867Z" fill="white"/>
</g>
</g>
</g>
</svg>
