<svg width="42" height="31" viewBox="0 0 42 31" fill="none" xmlns="http://www.w3.org/2000/svg">
<g id="MANDIRI">
<rect id="Background" y="0.5" width="42" height="30" rx="4" fill="#003D79"/>
<g id="logo">
<g id="Logo Mandiri">
<path id="Fill 1" fill-rule="evenodd" clip-rule="evenodd" d="M3.03789 16.3883C3.03789 15.8503 3.02842 15.3988 3 14.9962H3.98602L4.03225 15.6879H4.05992C4.2834 15.3224 4.69209 14.8901 5.45444 14.8901C6.04948 14.8901 6.51426 15.2366 6.70914 15.755H6.72827C6.88658 15.4958 7.07188 15.3039 7.28552 15.1689C7.53676 14.9867 7.82504 14.8901 8.19688 14.8901C8.94966 14.8901 9.71144 15.4182 9.71144 16.9163V19.6718H8.59611V17.0894C8.59611 16.3118 8.33624 15.8503 7.78809 15.8503C7.39702 15.8503 7.10855 16.1389 6.98852 16.4751C6.96028 16.59 6.93243 16.7341 6.93243 16.8676V19.6718H5.81672V16.9642C5.81672 16.3118 5.56614 15.8503 5.03618 15.8503C4.60854 15.8503 4.32073 16.1965 4.21822 16.5223C4.17142 16.6382 4.15266 16.7723 4.15266 16.9064V19.6718H3.03789V16.3883Z" fill="white"/>
<path id="Fill 3" fill-rule="evenodd" clip-rule="evenodd" d="M14.057 18.549C14.057 18.9713 14.0755 19.3835 14.1221 19.6723H13.0899L13.0158 19.154H12.9876C12.7089 19.5192 12.2348 19.778 11.6492 19.778C10.7381 19.778 10.2271 19.0968 10.2271 18.3859C10.2271 17.2045 11.2399 16.6097 12.9132 16.6192V16.5421C12.9132 16.2348 12.7922 15.7262 11.9929 15.7262C11.5465 15.7262 11.0816 15.8704 10.775 16.0716L10.5516 15.3042C10.8869 15.0925 11.473 14.8906 12.1882 14.8906C13.6389 14.8906 14.057 15.8418 14.057 16.8591V18.549ZM12.9411 17.3874C12.1325 17.368 11.3611 17.5504 11.3611 18.2611C11.3611 18.7215 11.6492 18.9331 12.0119 18.9331C12.4668 18.9331 12.802 18.6258 12.9039 18.2898C12.9316 18.2034 12.9411 18.107 12.9411 18.0305V17.3874Z" fill="white"/>
<path id="Fill 5" fill-rule="evenodd" clip-rule="evenodd" d="M14.8474 16.3883C14.8474 15.8503 14.8372 15.3988 14.8101 14.9962H15.8131L15.8692 15.6971H15.8967C16.0921 15.3326 16.5848 14.8901 17.3375 14.8901C18.1279 14.8901 18.9459 15.4182 18.9459 16.8972V19.6718H17.8027V17.0319C17.8027 16.3593 17.561 15.8503 16.9381 15.8503C16.4826 15.8503 16.1667 16.1864 16.0455 16.5418C16.009 16.6477 15.9993 16.7921 15.9993 16.9255V19.6718H14.8474V16.3883Z" fill="white"/>
<path id="Fill 7" fill-rule="evenodd" clip-rule="evenodd" d="M23.9029 13.1177V18.3564C23.9029 18.8363 23.9212 19.3558 23.9399 19.6722H22.9173L22.8715 18.933H22.8526C22.5828 19.4518 22.0336 19.7779 21.3743 19.7779C20.2965 19.7779 19.441 18.8275 19.441 17.3873C19.4315 15.8221 20.3796 14.8905 21.4671 14.8905C22.0897 14.8905 22.5363 15.1597 22.7405 15.5056H22.7593V13.1177H23.9029ZM22.7593 16.9449C22.7593 16.8499 22.7498 16.7341 22.7319 16.6384C22.6295 16.1775 22.2667 15.8028 21.7461 15.8028C21.0118 15.8028 20.6027 16.4753 20.6027 17.349C20.6027 18.2033 21.0118 18.8275 21.7368 18.8275C22.2014 18.8275 22.6107 18.5012 22.7221 17.9924C22.7498 17.8864 22.7593 17.7713 22.7593 17.646V16.9449Z" fill="white"/>
<path id="Fill 9" fill-rule="evenodd" clip-rule="evenodd" d="M24.7109 19.6719H25.8647V14.9966H24.7109V19.6719Z" fill="white"/>
<path id="Fill 11" fill-rule="evenodd" clip-rule="evenodd" d="M26.6727 16.5034C26.6727 15.87 26.663 15.4181 26.6353 14.996H27.6301L27.6665 15.8887H27.705C27.9277 15.2262 28.4577 14.996 28.9409 14.996C29.0522 14.996 29.1172 14.9764 29.2104 14.996V16.0333C29.1172 16.0141 29.0151 15.995 28.8757 15.995C28.3273 15.995 27.9552 16.3595 27.8531 16.8872C27.835 16.9929 27.8162 17.1182 27.8162 17.2533V19.672H26.6727V16.5034Z" fill="white"/>
<path id="Fill 12" fill-rule="evenodd" clip-rule="evenodd" d="M29.7402 19.6719H30.8923V14.9966H29.7402V19.6719Z" fill="white"/>
</g>
<path id="Flag" fill-rule="evenodd" clip-rule="evenodd" d="M29.4677 9.34369C28.7757 9.75762 27.1434 10.7246 26.534 11.0847C26.1626 11.2802 25.3025 11.3655 24.8161 10.6879C24.8073 10.6757 24.169 9.85185 24.143 9.82083C24.1247 9.79891 23.712 9.16667 22.7925 9.1469C22.6566 9.14358 21.9812 9.13986 21.3221 9.52678C20.446 10.0437 18.4086 11.2469 18.4086 11.2469C18.4081 11.2469 18.4081 11.248 18.407 11.248C17.5695 11.7429 16.917 12.1283 16.917 12.1283L17.688 13.1063C18.0486 13.5689 18.8619 13.9267 19.5673 13.5085C19.5673 13.5085 22.1734 11.9497 22.1829 11.9452C23.31 11.3067 24.1797 11.3067 24.7569 11.5443C25.2751 11.7704 25.7258 12.3339 25.7258 12.3339C25.7258 12.3339 26.3149 13.0879 26.4188 13.2198C26.754 13.646 27.3088 13.4786 27.3088 13.4786C27.3088 13.4786 27.5144 13.4545 27.8242 13.2645C27.8242 13.2645 30.3486 11.7526 30.3502 11.7521C31.1518 11.2664 31.8869 11.1756 32.2627 11.2114C33.4395 11.3218 33.8051 12.171 34.3153 12.7634C34.6158 13.1119 34.887 13.3098 35.3016 13.2998C35.5741 13.2938 35.8819 13.1232 35.9273 13.0923L38.9501 11.2904C38.9501 11.2904 38.64 10.8079 38.0048 10.0572C37.4362 9.38733 36.8324 9.69039 36.3509 9.93669C36.1487 10.04 35.4158 10.5436 34.6897 10.8949C34.1724 11.1451 33.4292 11.0699 33.022 10.5501C32.9976 10.5184 32.3387 9.6945 32.2695 9.59312C32.0036 9.24906 31.4847 8.94092 30.8197 8.94092C30.4154 8.94092 29.9566 9.05482 29.4677 9.34369Z" fill="url(#paint0_linear_1402_3151)"/>
</g>
</g>
<defs>
<linearGradient id="paint0_linear_1402_3151" x1="16.917" y1="13.6937" x2="38.9501" y2="13.6937" gradientUnits="userSpaceOnUse">
<stop stop-color="#FFCA06"/>
<stop offset="0.330844" stop-color="#FBAA18"/>
<stop offset="0.694742" stop-color="#FFC907"/>
<stop offset="1" stop-color="#FAA619"/>
</linearGradient>
</defs>
</svg>
