<svg width="73" height="72" viewBox="0 0 73 72" fill="none" xmlns="http://www.w3.org/2000/svg">
<g id="Category set">
<path id="Vector" d="M6.21423 57V39C6.21423 37.65 6.48923 36.425 7.03923 35.325C7.58923 34.225 8.31423 33.25 9.21423 32.4V24C9.21423 21.5 10.0892 19.375 11.8392 17.625C13.5892 15.875 15.7142 15 18.2142 15H30.2142C31.3642 15 32.4392 15.213 33.4392 15.639C34.4392 16.065 35.3642 16.652 36.2142 17.4C37.0642 16.65 37.9892 16.063 38.9892 15.639C39.9892 15.215 41.0642 15.002 42.2142 15H54.2142C56.7142 15 58.8392 15.875 60.5892 17.625C62.3392 19.375 63.2142 21.5 63.2142 24V32.4C64.1142 33.25 64.8392 34.225 65.3892 35.325C65.9392 36.425 66.2142 37.65 66.2142 39V57H60.2142V51H12.2142V57H6.21423ZM39.2142 30H57.2142V24C57.2142 23.15 56.9262 22.438 56.3502 21.864C55.7742 21.29 55.0622 21.002 54.2142 21H42.2142C41.3642 21 40.6522 21.288 40.0782 21.864C39.5042 22.44 39.2162 23.152 39.2142 24V30ZM15.2142 30H33.2142V24C33.2142 23.15 32.9262 22.438 32.3502 21.864C31.7742 21.29 31.0622 21.002 30.2142 21H18.2142C17.3642 21 16.6522 21.288 16.0782 21.864C15.5042 22.44 15.2162 23.152 15.2142 24V30ZM12.2142 45H60.2142V39C60.2142 38.15 59.9262 37.438 59.3502 36.864C58.7742 36.29 58.0622 36.002 57.2142 36H15.2142C14.3642 36 13.6522 36.288 13.0782 36.864C12.5042 37.44 12.2162 38.152 12.2142 39V45Z" fill="black"/>
</g>
</svg>
