<svg width="49" height="60" viewBox="0 0 49 60" fill="none" xmlns="http://www.w3.org/2000/svg">
<g id="Group">
<path id="Vector" d="M39.5 57V42M9.5 57V42" stroke="black" stroke-width="5" stroke-linecap="round"/>
<path id="Vector_2" d="M34.9981 30H13.9981C9.04812 30 6.57312 30 5.03412 31.758C4.17612 32.736 3.79812 34.05 3.63012 36.003C3.39912 38.703 3.28212 40.056 4.17312 41.028C5.06412 42 6.54312 42 9.49812 42H39.4981C42.4531 42 43.9291 42 44.8201 41.028C45.7141 40.056 45.5971 38.706 45.3631 36.003C45.1981 34.053 44.8171 32.739 43.9591 31.758C42.4231 30 39.9481 30 34.9981 30ZM9.49812 18C9.49812 12.39 9.49812 9.588 10.7041 7.5C11.494 6.13194 12.6301 4.99588 13.9981 4.206C16.0861 3 18.8881 3 24.4981 3C30.1081 3 32.9101 3 34.9981 4.206C36.3662 4.99588 37.5022 6.13194 38.2921 7.5C39.4981 9.588 39.4981 12.39 39.4981 18V30H9.49812V18Z" stroke="black" stroke-width="5"/>
</g>
</svg>
