<svg width="66" height="48" viewBox="0 0 66 48" fill="none" xmlns="http://www.w3.org/2000/svg">
<g id="Group">
<path id="Vector" d="M2.78571 36V45M32.7857 27V9M32.7857 9C32.7857 7.4087 33.4178 5.88258 34.5431 4.75736C35.6683 3.63214 37.1944 3 38.7857 3H50.7857C52.377 3 53.9031 3.63214 55.0283 4.75736C56.1536 5.88258 56.7857 7.4087 56.7857 9V15M32.7857 9C32.7857 7.4087 32.1536 5.88258 31.0283 4.75736C29.9031 3.63214 28.377 3 26.7857 3H14.7857C13.1944 3 11.6683 3.63214 10.5431 4.75736C9.41785 5.88258 8.78571 7.4087 8.78571 9V15" stroke="black" stroke-width="5" stroke-linecap="round" stroke-linejoin="round"/>
<path id="Vector_2" d="M62.7857 36V45M56.7857 15C55.1944 15 53.6683 15.6321 52.5431 16.7574C51.4178 17.8826 50.7857 19.4087 50.7857 21V27H14.7857V21C14.7857 19.4087 14.1536 17.8826 13.0283 16.7574C11.9031 15.6321 10.377 15 8.78571 15C7.19441 15 5.66828 15.6321 4.54306 16.7574C3.41785 17.8826 2.78571 19.4087 2.78571 21V39H62.7857V21C62.7857 19.4087 62.1536 17.8826 61.0283 16.7574C59.9031 15.6321 58.377 15 56.7857 15Z" stroke="black" stroke-width="5" stroke-linecap="round" stroke-linejoin="round"/>
</g>
</svg>
