<svg width="73" height="72" viewBox="0 0 73 72" fill="none" xmlns="http://www.w3.org/2000/svg">
<g id="Category set">
<path id="Vector" d="M18.4999 6C16.9086 6 15.3825 6.63214 14.2572 7.75736C13.132 8.88258 12.4999 10.4087 12.4999 12V57C12.4999 60.33 15.1699 63 18.4999 63V66H24.4999V63H48.4999V66H54.4999V63C57.8299 63 60.4999 60.33 60.4999 57V12C60.4999 10.4087 59.8677 8.88258 58.7425 7.75736C57.6173 6.63214 56.0912 6 54.4999 6H18.4999ZM18.4999 12H33.4999V57H18.4999V12ZM39.4999 12H54.4999V57H39.4999V12ZM24.4999 30V39H30.4999V30H24.4999ZM42.4999 30V39H48.4999V30H42.4999Z" fill="black"/>
</g>
</svg>
